<?xml version="1.0" encoding="utf-8"?>
<!-- Generator: Adobe Illustrator 28.0.0, SVG Export Plug-In . SVG Version: 6.00 Build 0)  -->
<svg version="1.1" id="Layer_1" xmlns="http://www.w3.org/2000/svg" xmlns:xlink="http://www.w3.org/1999/xlink" x="0px" y="0px"
	 viewBox="0 0 612 792" style="enable-background:new 0 0 612 792;" xml:space="preserve">
<style type="text/css">
	.st0{fill:none;}
	.st1{font-family:'Delaney-Regular';}
	.st2{font-size:36px;}
	.st3{display:none;}
	.st4{display:inline;fill:#ABB4A8;}
	.st5{fill:#ABB4A8;stroke:#000000;stroke-width:3;stroke-miterlimit:10;}
	.st6{font-size:120px;}
</style>
<g>
	<circle class="st0" cx="314" cy="282.5" r="75.3"/>
	<text transform="matrix(1 0 0 1 244.8682 271.7886)" class="st1 st2">M</text>
	<rect x="264" y="236.4" class="st0" width="5.8" height="14.3"/>
	<text transform="matrix(1 0 0 1 309.4414 279.2466)" class="st1 st2">R</text>
	<g>
		<g id="Background_00000134933431816188024440000016387424558272834972_" class="st3">
			<path class="st4" d="M561.9,140.1c0,256,0,256,0,512c-256,0-256,0-512,0c0-256,0-256,0-512C305.9,140.1,305.9,140.1,561.9,140.1z
				"/>
		</g>
		<path class="st5" d="M293.1,183.6c133-6.7,238.9,105.1,224.2,237.8c-11,99.2-95.9,179.9-195.2,186.8
			C185.6,617.6,76.2,500.6,95.4,364.9C109.2,267,194.2,188.6,293.1,183.6z"/>
	</g>
	<text transform="matrix(1 0 0 1 139.8727 377.9197)" class="st1 st6">M</text>
	<text transform="matrix(1 0 0 1 313.9918 490.9352)" class="st1 st6">R</text>
</g>
</svg>
